<svg width="24" height="18" viewBox="0 0 24 18" fill="none" xmlns="http://www.w3.org/2000/svg">
<g clip-path="url(#clip0_964_17644)">
<path d="M23.4699 2.9269C23.3335 2.39394 23.0663 1.908 22.6951 1.51773C22.324 1.12745 21.8619 0.84653 21.355 0.703073C19.4884 0.171875 11.9879 0.171875 11.9879 0.171875C11.9879 0.171875 4.48729 0.171875 2.62071 0.703073C2.11385 0.84653 1.65172 1.12745 1.28057 1.51773C0.90941 1.908 0.642248 2.39394 0.50582 2.9269C0.157288 4.92859 -0.0118455 6.96025 0.000644257 8.99517C-0.0118455 11.0301 0.157288 13.0617 0.50582 15.0634C0.642248 15.5964 0.90941 16.0823 1.28057 16.4726C1.65172 16.8629 2.11385 17.1438 2.62071 17.2873C4.48729 17.8185 11.9879 17.8185 11.9879 17.8185C11.9879 17.8185 19.4884 17.8185 21.355 17.2873C21.8619 17.1438 22.324 16.8629 22.6951 16.4726C23.0663 16.0823 23.3335 15.5964 23.4699 15.0634C23.8184 13.0617 23.9876 11.0301 23.9751 8.99517C23.9876 6.96025 23.8184 4.92859 23.4699 2.9269ZM9.59041 12.7766V5.21376L15.8152 8.99517L9.59041 12.7766Z" fill="#E42F08"/>
</g>
<defs>
<clipPath id="clip0_964_17644">
<rect width="24" height="17.6842" fill="white" transform="translate(0 0.15625)"/>
</clipPath>
</defs>
</svg>
