<svg width="24" height="27" viewBox="0 0 24 27" fill="none" xmlns="http://www.w3.org/2000/svg">
<g clip-path="url(#clip0_964_17693)">
<path d="M23.709 2.21695C23.5741 2.07725 23.4036 1.98052 23.2176 1.93815C23.0315 1.89578 22.8378 1.90951 22.659 1.97775L0.659024 10.2977C0.469292 10.3726 0.305944 10.5057 0.190675 10.6794C0.0754064 10.8531 0.0136719 11.0591 0.0136719 11.2701C0.0136719 11.4812 0.0754064 11.6872 0.190675 11.8609C0.305944 12.0346 0.469292 12.1677 0.659024 12.2425L10.259 16.2361L14.099 26.2201C14.1712 26.4088 14.2948 26.5714 14.4548 26.6878C14.6147 26.8042 14.8039 26.8694 14.999 26.8753C15.2011 26.871 15.3972 26.8031 15.5614 26.6806C15.7257 26.5581 15.8503 26.3867 15.919 26.1889L23.919 3.30895C23.9872 3.12495 24.0036 2.92459 23.9664 2.73125C23.9292 2.53791 23.84 2.35954 23.709 2.21695ZM14.999 22.9233L12.209 15.6433L16.999 10.6617L15.589 9.19535L10.759 14.2185L3.79902 11.2753L21.329 4.69215L14.999 22.9233Z" fill="#8EC2F2"/>
</g>
<defs>
<clipPath id="clip0_964_17693">
<rect width="24" height="26" fill="white" transform="translate(0 0.875)"/>
</clipPath>
</defs>
</svg>
